<svg width="1440" height="999" viewBox="0 0 1440 999" fill="none" xmlns="http://www.w3.org/2000/svg">
<path d="M1024.18 -470.56C1029.14 -472.205 1034.63 -471.045 1038.48 -467.52C1205.62 -314.611 1302.25 -143.723 1315.2 22.1063C1328.31 189.999 1255 344.42 1105.4 464.037C955.793 583.654 737.279 662.563 480.041 689.864C222.803 717.165 -60.4636 691.511 -330.629 616.445C-600.794 541.378 -844.523 420.605 -1028.15 270.809C-1211.77 121.013 -1326.23 -50.4137 -1355.71 -219.789C-1385.19 -389.165 -1328.23 -548.13 -1192.71 -674.725C-1058.64 -799.973 -854.202 -887.421 -607.159 -925.3C-602.27 -926.049 -597.36 -923.977 -594.479 -919.958C-588.73 -911.936 -593.507 -900.662 -603.248 -899.084C-836.781 -861.252 -1030.04 -777.355 -1157.63 -658.171C-1289.08 -535.374 -1344.33 -381.178 -1315.74 -216.883C-1287.14 -52.5891 -1176.12 113.695 -998.002 258.997C-819.886 404.299 -583.469 521.449 -321.409 594.264C-59.3487 667.078 215.42 691.963 464.941 665.481C714.462 638.999 926.42 562.457 1071.54 446.428C1216.65 330.4 1287.76 180.612 1275.04 17.7552C1262.8 -139.004 1173.47 -300.423 1018.88 -445.82C1010.77 -453.439 1013.63 -467.058 1024.18 -470.56Z" fill="white" fill-opacity="0.07"/>
<path d="M1127.81 -316.721C1132.36 -318.24 1137.41 -317.167 1140.95 -313.921C1324.45 -145.526 1413.77 45.7003 1391.62 223.242C1369.24 402.634 1234.67 555.205 1014.13 651.233C793.584 747.261 502.86 779.868 198.594 742.701C-105.672 705.534 -401.688 601.255 -631.785 450.18C-861.883 299.104 -1009.58 112.053 -1046.11 -74.5345C-1082.63 -261.122 -1005.37 -433.881 -829.372 -559.156C-653.373 -684.431 -391.243 -753.249 -94.0481 -752.204C197.417 -751.179 502.135 -683.03 762.96 -560.774C770.317 -557.326 771.755 -547.527 765.759 -542.044C762.304 -538.885 757.286 -538.141 753.056 -540.149C498.325 -661.074 199.537 -728.551 -86.1271 -729.556C-374.406 -730.57 -628.673 -663.816 -799.392 -542.299C-970.111 -420.783 -1045.06 -253.206 -1009.62 -72.2166C-974.194 108.773 -830.927 290.213 -607.732 436.756C-384.538 583.299 -97.4022 684.449 197.736 720.501C492.874 756.553 774.876 724.925 988.804 631.778C1202.73 538.631 1333.26 390.636 1354.97 216.626C1376 48.0353 1293.42 -133.277 1122.93 -294.08C1115.53 -301.061 1118.16 -313.503 1127.81 -316.721Z" fill="white" fill-opacity="0.07"/>
<path d="M1223.5 -244.406C1229.3 -244.608 1234.25 -242.276 1235.86 -238.553C1293.24 -105.43 1283.59 26.2561 1208.12 137.86C1131.48 251.193 990.983 337.896 807.081 385.341C623.18 432.786 405.484 438.495 185.705 401.634C-29.9391 365.468 -236.537 290.174 -405.142 186.416C-410.282 183.253 -409.585 177.3 -403.707 173.79C-398.824 170.875 -392.013 170.683 -387.75 173.316C-223.848 274.581 -22.6874 348.058 187.318 383.279C400.504 419.033 611.669 413.496 790.053 367.475C968.437 321.453 1104.72 237.35 1179.06 127.418C1250.95 21.1015 1261.27 -104.002 1208.9 -230.763C1206.3 -237.045 1213.75 -244.068 1223.5 -244.406Z" fill="white" fill-opacity="0.07"/>
</svg>
