<svg width="1440" height="1024" viewBox="0 0 1440 1024" fill="none" xmlns="http://www.w3.org/2000/svg">
<path d="M1166.79 -130.609C1171.31 -133.238 1176.91 -133.229 1181.41 -130.571C1376.4 -15.2632 1506.07 132.127 1552.82 291.758C1600.14 453.375 1560.12 619.564 1438.29 767.365C1316.45 915.167 1118.81 1037.29 872.67 1116.86C626.529 1196.42 344.034 1229.52 64.2102 1211.56C-215.614 1193.6 -478.957 1125.48 -689.44 1016.6C-899.924 907.727 -1047.16 763.473 -1110.81 603.768C-1174.46 444.062 -1151.38 276.786 -1044.76 125.049C-939.273 -25.0742 -757.167 -152.658 -523.176 -240.484C-518.546 -242.222 -513.314 -241.203 -509.669 -237.861C-502.396 -231.192 -504.754 -219.176 -513.963 -215.63C-734.741 -130.626 -906.645 -8.8125 -1007.02 134.042C-1110.44 281.227 -1132.83 443.484 -1071.09 598.399C-1009.35 753.314 -866.534 893.24 -662.365 998.848C-458.196 1104.46 -202.753 1170.53 68.6763 1187.95C340.106 1205.37 614.126 1173.28 852.883 1096.09C1091.64 1018.91 1283.35 900.456 1401.53 757.089C1519.71 613.721 1558.53 452.519 1512.63 295.749C1468.44 144.85 1347.85 5.22656 1166.68 -105.306C1157.19 -111.098 1157.18 -125.013 1166.79 -130.609Z" fill="white" fill-opacity="0.07"/>
<path d="M1294.32 -190.557C1298.75 -192.426 1303.86 -191.75 1307.64 -188.79C1503.72 -35.2171 1607.67 148.463 1599.44 327.19C1591.12 507.781 1468.86 670.382 1256.47 783.315C1044.09 896.248 756.791 951.426 450.553 938.098C144.316 924.77 -158.93 843.892 -400.108 711.22C-641.285 578.547 -803.12 403.582 -854.085 220.412C-905.05 37.2408 -841.494 -141.017 -675.8 -279.635C-510.106 -418.252 -254.14 -507.302 42.2316 -529.435C332.89 -551.141 641.994 -506.961 911.558 -405.416C919.161 -402.552 921.359 -392.895 915.809 -386.962C912.61 -383.542 907.666 -382.41 903.292 -384.082C639.907 -484.775 336.767 -528.748 51.8945 -507.473C-235.586 -486.005 -483.873 -399.627 -644.596 -265.168C-805.32 -130.708 -866.969 42.2019 -817.533 219.878C-768.097 397.553 -611.117 567.269 -377.175 695.961C-143.233 824.654 150.916 903.106 447.967 916.033C745.017 928.961 1023.69 875.439 1229.71 765.894C1435.72 656.348 1554.31 498.626 1562.39 323.453C1570.2 153.735 1473.74 -20.5854 1291.23 -167.605C1283.31 -173.987 1284.95 -186.595 1294.32 -190.557Z" fill="white" fill-opacity="0.07"/>
<path d="M1441.27 -8.2298C1446.91 -9.61943 1452.23 -8.35432 1454.57 -5.04062C1538.08 113.454 1555.69 244.314 1504.76 369.041C1453.04 495.701 1333.35 609.422 1163.12 693.638C992.89 777.854 781.012 828.166 558.348 837.247C339.874 846.156 122.214 814.914 -64.1121 748.01C-69.7919 745.971 -70.3328 740.002 -65.3012 735.359C-61.1213 731.503 -54.4948 729.916 -49.7825 731.617C131.428 797.048 343.394 827.628 556.155 818.951C772.139 810.143 977.661 761.34 1142.79 679.65C1307.91 597.961 1424.01 487.652 1474.17 364.792C1522.69 245.974 1507.08 121.419 1429.78 8.12242C1425.95 2.50818 1431.8 -5.89543 1441.27 -8.2298Z" fill="white" fill-opacity="0.07"/>
</svg>
